<?xml version="1.0" encoding="UTF-8"?>
<svg id="Layer_1" xmlns="http://www.w3.org/2000/svg" version="1.1" viewBox="0 0 160 160">
  <!-- Generator: Adobe Illustrator 29.8.2, SVG Export Plug-In . SVG Version: 2.1.1 Build 3)  -->
  <g id="Generative_Object">
    <g>
      <path d="M75.73,133.23c3.08-15-.73-28.31-10.61-36.79l-.56-.48-.24.7c-.22.64-.43,1.25-.63,1.85-1.69,5.02-2.91,8.65-7.27,12.58-.75.67-1.79,1.37-2.89,2.11-1.74,1.17-3.54,2.38-4.41,3.66-1.27,1.86-1.55,3.67-1.83,5.42-.37,2.35-.7,4.39-3.28,6.35-1.23.94-1.93,1.25-2.75,1.25-.6,0-1.32-.17-2.29-.45-6.06-1.75-7.74-4-7.82-10.46-.04-3.26.22-6.58.47-9.79.36-4.66.74-9.48.23-14.3-.09-.88-.32-1.54-.52-2.12-.34-.97-.6-1.73-.14-3.22.2-.64,1.12-2.39,2.01-4.08,1.78-3.38,2.29-4.44,2.22-4.91l-.03-.19-13.79-11.38c2.37-1.01,5.13-1.52,8.22-1.52,2.35,0,4.83.29,7.38.87,3.27.74,9.75,3.36,10.98,4.21.46.32.98.48,1.56.48,1.04,0,2.16-.5,3.46-1.08,1.3-.58,2.78-1.24,4.5-1.55,1.59-.22,3.17-.33,4.69-.33,9.06,0,15.58,3.89,23.83,8.82l2.05,1.22c2.72,2.37,14.1,14.39,12.46,20.14-.49,1-14.72,19.64-24.99,32.99Z"/>
      <path d="M29.82,67.97c2.31,0,4.75.29,7.27.86,3.15.72,9.64,3.33,10.81,4.14.54.38,1.16.57,1.85.57,1.15,0,2.31-.52,3.66-1.13,1.27-.57,2.72-1.22,4.35-1.51,1.58-.22,3.14-.33,4.64-.33,8.93,0,15.39,3.86,23.57,8.75l1.53.91.44.26c2.55,2.28,13.71,14.17,12.33,19.54-.94,1.57-13.76,18.37-23.66,31.25,2.37-14.34-1.59-27-11.15-35.21l-1.12-.96-.48,1.39c-.22.64-.43,1.26-.63,1.86-1.66,4.95-2.86,8.53-7.13,12.37-.72.65-1.75,1.34-2.83,2.07-1.78,1.19-3.62,2.43-4.54,3.79-1.33,1.96-1.64,3.9-1.91,5.62-.36,2.25-.66,4.19-3.09,6.03-1.27.97-1.84,1.15-2.45,1.15-.55,0-1.23-.16-2.15-.43-5.43-1.57-7.38-3.31-7.46-9.98-.04-3.24.22-6.55.47-9.74.36-4.68.74-9.53.22-14.39-.1-.93-.34-1.62-.55-2.23-.33-.95-.55-1.58-.14-2.91.19-.6,1.14-2.4,1.97-4,2.04-3.88,2.36-4.61,2.27-5.21l-.05-.38-.3-.25-12.99-10.72c2.13-.78,4.56-1.17,7.25-1.17M29.82,66.97c-3.18,0-6.36.54-9.16,1.89l14.26,11.77c.1.71-3.75,7.26-4.21,8.78-.8,2.57.41,3.27.65,5.54.86,8.1-.79,16.04-.7,24.04.08,6.37,1.68,9.05,8.18,10.93,1.02.3,1.77.47,2.43.47.99,0,1.78-.39,3.05-1.35,4.73-3.6,2.36-7.67,5.22-11.89,1.34-1.98,5.25-3.9,7.22-5.68,4.99-4.49,5.95-8.59,8.04-14.65,11.42,9.8,13.41,24.53,9.94,38.51,0,0,26.19-34.02,26.46-34.95,1.93-6.75-12.74-21.12-13.23-21.12-.02,0-.01.03.03.1-8.87-5.28-15.84-9.8-25.61-9.8-1.52,0-3.11.11-4.78.34-3.49.63-5.96,2.63-7.87,2.63-.46,0-.88-.11-1.28-.39-1.36-.94-7.97-3.56-11.15-4.29-2.38-.54-4.94-.88-7.49-.88h0Z"/>
    </g>
  </g>
  <g>
    <path d="M116.71,95.5c3.11-1.12,4.91-4.2,7.49-6.14,4.04-4.02,15.49-4.19,20.28-4.71,1.67-.18,2.32-.77-.66-1.72-6.9-3.02-41.7-3.52-43.59-11.84,2.38-4.1,16.12-2.86,21.76-3.93,6.79-.94,7.42-3.28-1.11-5.8-7.22-2.16-15.24-3.22-21.8-2.98-4.28-.28-20.16,2.25-18.96-1.64,1.05-1.78,3.18-2.71,8.64-7.61,15.76-13.2,7.22-12.08-8.68-8.64-22.11,3.99-15.79,21.31-26.51-4.63,0,0-1.43-5.68-1.56-4.87.03,3.43-.66,14.7.15,19.31.97,6.27,1.85,16.13,10.54,16.03,14.32-.17,32.27,11.88,39.75,24.26,2.89,4.78,10.33,6.18,14.16,4.94l.11-.04Z"/>
    <path d="M116.91,96.23c3.67-1.43,5.62-5.01,8.8-7.13,2.9-1.93,6.75-2.47,10.13-2.9,1.74-.22,3.49-.37,5.24-.5,1.34-.11,2.76-.11,4.08-.39.92-.19,1.96-.89,1.21-1.9-.65-.86-2.13-1.16-3.12-1.49-4.43-1.49-9.39-1.77-14-2.38-6.07-.81-12.19-1.58-18.14-3.05-2.36-.58-4.76-1.26-6.92-2.39-.79-.41-1.57-.88-2.21-1.51-.26-.25-.49-.51-.67-.82-.08-.13-.13-.28-.21-.4-.03-.05-.03-.15-.07-.19-.24-.24,0,.08-.03.09.39-.24.67-.66,1.1-.9.59-.33,1.23-.55,1.88-.74,1.53-.43,3.12-.64,4.69-.79,3.38-.32,6.79-.33,10.18-.57,1.42-.1,2.83-.29,4.24-.53,1.33-.23,2.88-.51,3.98-1.35,2.27-1.74-.55-3.65-2.15-4.37-4.45-2-9.52-2.98-14.32-3.68-4.16-.6-8.31-.76-12.51-.73-2.71.02-5.42.32-8.13.46s-5.47.43-8-.24c-.41-.11-1.2-.27-1.14-.8.07-.64,1.38-1.49,1.83-1.86,3.11-2.55,6.23-5.07,9.23-7.75,1.48-1.32,9.75-8.51,3.94-9.77-2.41-.52-5.13.05-7.52.45-3.78.63-7.62,1.34-11.33,2.31-4.7,1.23-8.85,3.47-12.57,6.57-.81.68-1.84,1.69-2.7,2.04-.37.15-.55.12-.72.04-.4-.2-.7-.57-1-.98-1.34-1.85-2.2-4.1-3.1-6.17-1.19-2.74-2.38-5.43-3.17-8.31-.25-.91-.42-2.17-.96-2.96-.68-.98-1.49-.19-1.52.7-.1,3.19-.19,6.38-.23,9.56s-.06,6.6.44,9.86c.47,3.04.84,6.12,1.89,9.03.97,2.69,2.57,5.29,5.27,6.51,1.52.69,3.08.78,4.73.8,1.99.03,3.96.29,5.91.71,8.51,1.85,16.46,6.49,22.99,12.17,3.16,2.75,6.09,5.84,8.45,9.31,1.01,1.48,1.83,3,3.23,4.16,1.31,1.09,2.83,1.88,4.44,2.42,2.68.9,5.81,1.24,8.54.36.92-.29.52-1.74-.4-1.45-2.89.93-6.31.38-9.03-.87-1.62-.74-3.13-1.82-4.15-3.3s-1.98-3.05-3.11-4.49c-5.11-6.51-11.92-11.85-19.27-15.6-3.58-1.83-7.37-3.32-11.3-4.17-1.8-.39-3.63-.65-5.47-.74-1.73-.08-3.43.04-5.04-.73-2.75-1.32-4.07-4.3-4.84-7.08s-1.23-5.74-1.55-8.61c-.38-3.41-.26-6.89-.18-10.32.04-1.67.09-3.34.14-5.01.02-.59.03-1.18.04-1.78,0-.18.09-.6,0-.76v-.17c-.43.08-.85.15-1.28.23.02-.03.1.31.1.23.02.45.34,1.05.47,1.49.16.57.32,1.14.47,1.71.32,1.19.75,2.27,1.22,3.41,1.17,2.8,2.31,5.63,3.67,8.34.98,1.95,2.56,5.02,5.19,3.67,1.06-.55,1.96-1.45,2.87-2.21,1.47-1.23,3-2.35,4.67-3.3,2.44-1.39,5.09-2.37,7.81-3.03,3.63-.89,7.35-1.61,11.04-2.21,1.41-.23,2.83-.43,4.25-.49.83-.04,1.89-.12,2.67.23,1.36.61-.86,2.9-1.42,3.53-2.85,3.2-6.28,5.97-9.58,8.68-1.72,1.41-4.03,2.73-5.27,4.63-2.73,4.19,8,3.6,9.49,3.53,6.47-.29,12.77-.81,19.24-.06,4.98.58,10.1,1.58,14.8,3.37.5.19,3.3,1.13,3.25,1.96-.05.77-2.42,1.16-2.92,1.26-6.19,1.31-12.63.45-18.83,1.78-1.41.3-5.55,1.37-5.15,3.49.29,1.52,1.78,2.71,3.01,3.48,4.18,2.6,9.53,3.48,14.3,4.32,5.81,1.03,11.67,1.69,17.51,2.52,2.23.32,4.48.64,6.68,1.14.76.17,1.51.38,2.24.64.19.07.39.15.58.22s1.13.61,1.32.58c0,0,.28-.49.13-.6-.02-.01-.26.1-.31.1-.35-.02-.77.12-1.13.15-3.17.3-6.35.47-9.51.93s-6.66,1.09-9.39,2.9c-3.03,2.01-5,5.63-8.45,6.97-.89.35-.5,1.8.4,1.45Z"/>
  </g>
</svg>